# AST/ASF file generated using VICON BodyLanguage
# -----------------------------------------------
:version 1.10
:name VICON
:units
  mass 1.0
  length 0.45
  angle deg
:documentation
   .ast/.asf automatically generated from VICON data using
   VICON BodyBuilder and BodyLanguage model FoxedUp or BRILLIANT.MOD
:root
   order TX TY TZ RX RY RZ
   axis XYZ
   position 0 0 0  
   orientation 0 0 0 
:bonedata
  begin
     id 1 
     name lhipjoint
     direction 0.567725 -0.736092 0.368589 
     length 2.42353 
     axis 0 0 0  XYZ
  end
  begin
     id 2 
     name lfemur
     direction 0.34202 -0.939693 0  
     length 7.24894  
     axis 0 0 20  XYZ
    dof rx ry rz
    limits (-160.0 20.0)
           (-70.0 70.0)
           (-60.0 70.0)
  end
  begin
     id 3 
     name ltibia
     direction 0.34202 -0.939693 0   
     length 7.6997   
     axis 0 0 20   XYZ
    dof rx
    limits (-10.0 170.0)
  end
  begin
     id 4 
     name lfoot
     direction 0.100767 -0.276854 0.955614   
     length 2.37556   
     axis -90 7.62852e-016 20   XYZ
    dof rx rz
    limits (-45.0 90.0)
           (-70.0 20.0)
  end
  begin
     id 5 
     name ltoes
     direction 1.53592e-011 -4.21894e-011 1   
     length 1.18363   
     axis -90 7.62852e-016 20   XYZ
    dof rx
    limits (-90.0 20.0)
  end
  begin
     id 6 
     name rhipjoint
     direction -0.556459 -0.742938 0.372017   
     length 2.4012  
     axis 0 0 0  XYZ 
  end
  begin
     id 7 
     name rfemur
     direction -0.34202 -0.939693 0   
     length 7.5119   
     axis 0 0 -20   XYZ
    dof rx ry rz
    limits (-160.0 20.0)
           (-70.0 70.0)
           (-70.0 60.0)
  end
  begin
     id 8 
     name rtibia
     direction -0.34202 -0.939693 0   
     length 7.50155   
     axis 0 0 -20   XYZ
    dof rx
    limits (-10.0 170.0)
 end
 begin
     id 9 
     name rfoot
     direction -0.118427 -0.325376 0.938139   
     length 2.32487  
     axis -90 -7.62852e-016 -20   XYZ
    dof rx rz
    limits (-45.0 90.0)
           (-20.0 70.0)
  end
  begin
     id 10 
     name rtoes
     direction -1.53525e-011 -4.21868e-011 1   
     length 1.15233   
     axis -90 -7.62852e-016 -20   XYZ
    dof rx
    limits (-90.0 20.0)
  end
  begin
     id 11 
     name lowerback
     direction 0.0287568 0.999577 -0.00434502   
     length 2.15243   
     axis 0 0 0   XYZ
    dof rx ry rz
    limits (-20.0 45.0)
           (-30.0 30.0)
           (-30.0 30.0)
  end
  begin
     id 12 
     name upperback
     direction 0.0294009 0.99956 0.00404628   
     length 2.15427   
     axis 0 0 0   XYZ
    dof rx ry rz
    limits (-20.0 45.0)
           (-30.0 30.0)
           (-30.0 30.0)
  end
  begin
     id 13 
     name thorax
     direction 0.0151014 0.999868 0.0059419   
     length 2.14898   
     axis 0 0 0   XYZ
    dof rx ry rz
    limits (-20.0 45.0)
           (-30.0 30.0)
           (-30.0 30.0)
  end
  begin
     id 14 
     name lowerneck
     direction -0.0249197 0.989906 0.139515   
     length 1.6861   
     axis 0 0 0   XYZ
    dof rx ry rz
    limits (-20.0 45.0)
           (-30.0 30.0)
           (-30.0 30.0)
  end
  begin
     id 15 
     name upperneck
     direction 0.0438463 0.988795 -0.142693   
     length 1.71276   
     axis 0 0 0   XYZ
    dof rx ry rz
    limits (-20.0 45.0)
           (-30.0 30.0)
           (-30.0 30.0)
  end
  begin
     id 16
     name head
     direction 0.0148499 0.997845 -0.0639186  
     length 1.7209  
     axis 0 0 0   XYZ
    dof rx ry rz
    limits (-20.0 45.0)
           (-30.0 30.0)
           (-30.0 30.0)
  end
  begin
     id 17 
     name lclavicle
     direction 0.940298 0.323464 -0.105876  
     length 3.9048  
     axis 0 0 0   XYZ
    dof ry rz
    limits (-20.0 10.0)
           (0.0 20.0)
  end
  begin
     id 18 
     name lhumerus
     direction 1 -4.48954e-011 -4.9675e-028   
     length 4.6851   
     axis 180 -30 -90   XYZ
    dof rx ry rz
    limits (-60.0 90.0)
           (-90.0 90.0)
           (-90.0 90.0)
  end
  begin
     id 19
     name lradius
     direction 1 -4.48992e-011 -1.03359e-026   
     length 3.39626   
     axis 180 -30 -90   XYZ
    dof rx
    limits (-10.0 170.0)
  end
  begin
     id 20
     name lwrist
     direction 1 -4.48906e-011 -1.67336e-026   
     length 1.69813   
     axis 9.90442e-015 90 90   XYZ
    dof ry
    limits (-180.0 0.0)
 end
  begin
     id 21 
     name lhand
     direction 1 -4.49006e-011 -3.34673e-026   
     length 0.486078   
     axis 2.1355e-014 90 90   XYZ
    dof rx rz
    limits (-90.0 90.0)
           (-45.0 45.0)
  end
  begin
     id 22 
     name lfingers
     direction 1 -4.48992e-011 -6.69345e-026   
     length 0.391889   
     axis 4.27099e-014 90 90   XYZ
    dof rx
    limits (0.0 90.0)
  end
  begin
     id 23
     name lthumb
     direction 0.707107 -6.34926e-011 0.707107   
     length 0.562676   
     axis -90 45 2.85299e-015   XYZ
    dof rx rz
    limits (-45.0 45.0)
           (-45.0 45.0)
  end
  begin
     id 24 
     name rclavicle
     direction -0.882459 0.414895 -0.221648   
     length 3.44646  
     axis 0 0 0   XYZ 
    dof ry rz
    limits (-10.0 20.0)
           (-20.0 0.0)
  end
  begin
     id 25 
     name rhumerus
     direction -1 -4.48962e-011 -2.37984e-027  
     length 5.55576   
     axis 180 30 90   XYZ
    dof rx ry rz
    limits (-90.0 60.0)
           (-90.0 90.0)
           (-90.0 90.0)
  end
  begin
     id 26 
     name rradius
     direction -1 -4.48982e-011 -6.86791e-027   
     length 3.32774   
     axis 180 30 90   XYZ
    dof rx
    limits (-10.0 170.0)
  end
  begin
     id 27 
     name rwrist
     direction -1 -4.48961e-011 -1.67336e-026   
     length 1.66387   
     axis 9.90442e-015 -90 -90   XYZ
    dof ry
    limits (-180.0 0.0)
  end
  begin
     id 28
     name rhand
     direction -1 -4.4897e-011 -3.34673e-026   
     length 0.507628   
     axis 2.1355e-014 -90 -90   XYZ
    dof rx rz
    limits (-90.0 90.0)
           (-45.0 45.0)
  end
  begin
     id 29
     name rfingers
     direction -1 -4.48854e-011 -6.69345e-026   
     length 0.409263   
     axis 4.27099e-014 -90 -90   XYZ
    dof rx
    limits (0.0 90.0)
  end
  begin
     id 30
     name rthumb
     direction -0.707107 -6.34913e-011 0.707107   
     length 0.587622   
     axis -90 -45 -2.85299e-015   XYZ
    dof rx rz
    limits (-45.0 45.0)
           (-45.0 45.0)
  end
:hierarchy
  begin
    root lhipjoint rhipjoint lowerback
    lhipjoint lfemur
    lfemur ltibia
    ltibia lfoot
    lfoot ltoes
    rhipjoint rfemur
    rfemur rtibia
    rtibia rfoot
    rfoot rtoes
    lowerback upperback
    upperback thorax
    thorax lowerneck lclavicle rclavicle
    lowerneck upperneck
    upperneck head
    lclavicle lhumerus
    lhumerus lradius
    lradius lwrist
    lwrist lhand lthumb
    lhand lfingers
    rclavicle rhumerus
    rhumerus rradius
    rradius rwrist
    rwrist rhand rthumb
    rhand rfingers
  end

#!OML:ASF E:\motion texture\Top Level 1\Subject 1\Session 1\male.ASF
:FULLY-SPECIFIED
:DEGREES
65
root 19.4156 17.911 5.1675 124.52 -77.8386 -127.498
lowerback 6.65498 3.67407 9.04529
upperback -1.03827 5.69898 3.38901
thorax -4.29246 2.58934 -2.0584
lowerneck -21.0726 -4.86979 -6.38502
upperneck 17.6717 -6.30112 6.80897
head 9.47674 -2.62887 2.50123
rclavicle 3.51103e-014 2.93207e-014
rhumerus 18.7185 18.8243 -70.1059
rradius 77.4672
rwrist -13.3664
rhand -7.61749 -9.40198
rfingers 7.12502
rthumb 18.2769 -38.5633
lclavicle 3.51103e-014 2.93207e-014
lhumerus -62.7923 -8.71473 64.9411
lradius 36.8428
lwrist -7.767
lhand -1.45926 6.46251
lfingers 7.12502
lthumb 24.1919 34.9567
rfemur 8.20772 8.22652 36.9765
rtibia 19.9361
rfoot -13.4898 -7.75829
rtoes 4.81928
lfemur -95.5284 4.37856 -10.3728
ltibia 73.4073
lfoot 196.933 10.6942
ltoes 1.09262
66
root 19.277 17.9019 5.15997 124.63 -77.773 -127.284
lowerback 6.27639 3.7149 9.00512
upperback -1.09499 5.70816 3.37297
thorax -4.13928 2.60107 -2.02714
lowerneck -21.0859 -4.87896 -6.40382
upperneck 17.6019 -6.32737 6.91618
head 9.46142 -2.63064 2.5373
rclavicle 4.29251e-014 -1.05356e-014
rhumerus 17.6786 18.7075 -70.8002
rradius 77.5824
rwrist -13.3692
rhand -7.67539 -9.35257
rfingers 7.12502
rthumb 18.2212 -38.5191
lclavicle 4.29251e-014 -1.05356e-014
lhumerus -62.4847 -8.57017 65.1927
lradius 36.8389
lwrist -7.69757
lhand -1.55132 6.39522
lfingers 7.12502
lthumb 24.1037 34.9012
rfemur 8.26784 8.17451 36.9785
rtibia 20.0579
rfoot -13.5433 -7.56379
rtoes 4.09594
lfemur -94.6545 4.6261 -10.2237
ltibia 74.997
lfoot 197.505 11.1809
ltoes 1.02198
67
root 19.1379 17.8925 5.15265 124.812 -77.7018 -127.118
lowerback 5.8745 3.75292 8.97402
upperback -1.1582 5.71197 3.34871
thorax -3.97857 2.60993 -2.00717
lowerneck -21.0906 -4.88195 -6.41303
upperneck 17.5365 -6.34847 7.02118
head 9.44539 -2.62988 2.57191
rclavicle 7.31714e-014 3.78685e-014
rhumerus 16.5792 18.6228 -71.529
rradius 77.6679
rwrist -13.4028
rhand -7.7024 -9.33939
rfingers 7.12502
rthumb 18.1952 -38.5084
lclavicle 7.31714e-014 3.78685e-014
lhumerus -62.146 -8.40624 65.4827
lradius 36.8453
lwrist -7.68154
lhand -1.65208 6.31832
lfingers 7.12502
lthumb 24.0071 34.837
rfemur 8.31605 8.14901 36.9846
rtibia 20.165
rfoot -13.5818 -7.39377
rtoes 3.35211
lfemur -93.6351 4.90377 -10.0684
ltibia 76.7095
lfoot 198.192 11.8178
ltoes 0.921081
68
root 18.9984 17.8828 5.14546 125.061 -77.6311 -127.003
lowerback 5.45542 3.78917 8.94489
upperback -1.22699 5.71193 3.31478
thorax -3.81318 2.61679 -1.99672
lowerneck -21.0953 -4.8804 -6.40802
upperneck 17.4808 -6.36715 7.12016
head 9.43191 -2.62773 2.60249
rclavicle -1.97107e-014 1.55052e-014
rhumerus 15.4301 18.5625 -72.2794
rradius 77.7208
rwrist -13.4387
rhand -7.69984 -9.34452
rfingers 7.12502
rthumb 18.1976 -38.5133
lclavicle -1.97107e-014 1.55052e-014
lhumerus -61.7815 -8.23682 65.8134
lradius 36.8827
lwrist -7.70507
lhand -1.76176 6.24791
lfingers 7.12502
lthumb 23.9019 34.7804
rfemur 8.36193 8.15243 36.9924
rtibia 20.2529
rfoot -13.6111 -7.25489
rtoes 2.62368
lfemur -92.4732 5.20521 -9.91336
ltibia 78.548
lfoot 199.023 12.6243
ltoes 0.862933
69
root 18.858 17.8726 5.13852 125.4 -77.5639 -126.971
lowerback 5.01615 3.82653 8.91316
upperback -1.29175 5.7105 3.27031
thorax -3.6314 2.62371 -1.99374
lowerneck -21.0864 -4.87605 -6.39253
upperneck 17.4141 -6.38416 7.21447
head 9.41157 -2.62509 2.63005
rclavicle -2.33106e-014 -8.26944e-014
rhumerus 14.2407 18.5214 -73.0412
rradius 77.7254
rwrist -13.4314
rhand -7.69685 -9.36998
rfingers 7.12502
rthumb 18.2005 -38.5385
lclavicle -2.33106e-014 -8.26944e-014
lhumerus -61.3726 -8.04557 66.1675
lradius 36.9418
lwrist -7.78233
lhand -1.87473 6.25494
lfingers 7.12502
lthumb 23.7935 34.8016
rfemur 8.41734 8.1731 36.9899
rtibia 20.3209
rfoot -13.6374 -7.13457
rtoes 1.92734
lfemur -91.1596 5.52838 -9.76471
ltibia 80.9614
lfoot 200.856 31.4398
ltoes 0.900645
70
root 18.7166 17.8619 5.13214 125.837 -77.4944 -127.034
lowerback 4.58096 3.86285 8.88636
upperback -1.35778 5.70873 3.21665
thorax -3.45189 2.63004 -2.00306
lowerneck -21.089 -4.86669 -6.37039
upperneck 17.3559 -6.39497 7.30359
head 9.39537 -2.61942 2.65553
rclavicle 5.37806e-015 5.96354e-015
rhumerus 13.02 18.5102 -73.8036
rradius 77.6817
rwrist -13.3615
rhand -7.62949 -9.42162
rfingers 7.12502
rthumb 18.2653 -38.5841
lclavicle 5.37806e-015 5.96354e-015
lhumerus -60.9468 -7.84341 66.552
lradius 37.0499
lwrist -7.86989
lhand -1.9875 6.24096
lfingers 7.12502
lthumb 23.6854 34.8017
rfemur 8.48645 8.20014 36.9737
rtibia 20.3701
rfoot -13.6646 -7.01698
rtoes 1.26114
lfemur -89.6937 5.87387 -9.62078
ltibia 83.9263
lfoot 203.589 50.09
ltoes 1.04156
71
root 18.5738 17.8506 5.12655 126.388 -77.4185 -127.215
lowerback 4.16121 3.90135 8.86454
upperback -1.43286 5.71288 3.15514
thorax -3.28883 2.63807 -2.02487
lowerneck -21.0791 -4.85234 -6.34198
upperneck 17.3022 -6.39942 7.3819
head 9.37745 -2.61191 2.67733
rclavicle 4.18846e-015 -3.67752e-014
rhumerus 11.756 18.5298 -74.568
rradius 77.5851
rwrist -13.2083
rhand -7.56015 -9.46552
rfingers 7.12502
rthumb 18.332 -38.6217
lclavicle 4.18846e-015 -3.67752e-014
lhumerus -60.5111 -7.63342 66.9629
lradius 37.1968
lwrist -7.94843
lhand -2.07898 6.13012
lfingers 7.12502
lthumb 23.5976 34.7022
rfemur 8.57379 8.22826 36.9389
rtibia 20.4018
rfoot -13.6939 -6.89312
rtoes 0.616076
lfemur -88.0703 6.24575 -9.48059
ltibia 86.6858
lfoot 209.057 68.5071
ltoes 1.27368
72
root 18.4292 17.8386 5.12189 127.062 -77.3319 -127.529
lowerback 3.75492 3.94141 8.84869
upperback -1.51002 5.72127 3.09041
thorax -3.13426 2.64748 -2.05431
lowerneck -21.0631 -4.83024 -6.31663
upperneck 17.2504 -6.39093 7.45309
head 9.35794 -2.59952 2.69916
rclavicle 4.89352e-015 -4.23287e-014
rhumerus 10.4588 18.5927 -75.3207
rradius 77.4336
rwrist -12.9838
rhand -7.47127 -9.49309
rfingers 7.12502
rthumb 18.4175 -38.6412
lclavicle 4.89352e-015 -4.23287e-014
lhumerus -60.0563 -7.39734 67.395
lradius 37.3716
lwrist -7.99474
lhand -2.16671 5.93748
lfingers 7.12502
lthumb 23.5135 34.5204
rfemur 8.68661 8.25082 36.8835
rtibia 20.4145
rfoot -13.7252 -6.75504
rtoes -0.0302487
lfemur -86.284 6.64798 -9.34275
ltibia 88.5342
lfoot 250.763 85.6587
ltoes 1.53914
73
root 18.2821 17.8261 5.11801 127.835 -77.2405 -127.955
lowerback 3.37108 3.982 8.83505
upperback -1.59465 5.73384 3.0232
thorax -2.99934 2.65773 -2.08951
lowerneck -21.0337 -4.79698 -6.30138
upperneck 17.1992 -6.36461 7.52437
head 9.33529 -2.57985 2.72548
rclavicle -4.13648e-014 7.59109e-015
rhumerus 9.12008 18.6939 -76.0661
rradius 77.2283
rwrist -12.6994
rhand -7.39184 -9.53631
rfingers 7.12502
rthumb 18.4939 -38.6772
lclavicle -4.13648e-014 7.59109e-015
lhumerus -59.5956 -7.15315 67.8606
lradius 37.5778
lwrist -7.98053
lhand -2.25534 5.66747
lfingers 7.12502
lthumb 23.4285 34.2612
rfemur 8.84127 8.27506 36.8089
rtibia 20.3946
rfoot -13.7627 -6.60842
rtoes -0.62692
lfemur -84.3347 7.07457 -9.21117
ltibia 88.976
lfoot 371.489 74.2315
ltoes 1.82635
74
root 18.1322 17.8129 5.1148 128.7 -77.1393 -128.486
lowerback 2.98896 4.02198 8.81775
upperback -1.67313 5.7452 2.96168
thorax -2.85999 2.66765 -2.11645
lowerneck -21.0143 -4.75489 -6.28678
upperneck 17.1538 -6.32044 7.57423
head 9.3142 -2.5539 2.74702
rclavicle 3.1891e-015 1.32192e-014
rhumerus 7.76603 18.8452 -76.7878
rradius 76.9705
rwrist -12.3932
rhand -7.34767 -9.53005
rfingers 7.12502
rthumb 18.5364 -38.6669
lclavicle 3.1891e-015 1.32192e-014
lhumerus -59.1034 -6.87022 68.3536
lradius 37.7959
lwrist -7.89776
lhand -2.36138 5.39639
lfingers 7.12502
lthumb 23.3267 34.0031
rfemur 9.02465 8.29524 36.7157
rtibia 20.3697
rfoot -13.8124 -6.44421
rtoes -1.16425
lfemur -82.2196 7.52568 -9.07656
ltibia 87.8268
lfoot 379.514 56.2236
ltoes 2.16956
